HIERARCHY
ROOT hip
{
	OFFSET 0.000000 0.000000 0.000000 
	CHANNELS 6 Xposition Yposition Zposition Xrotation Zrotation Yrotation
	JOINT abdomen
	{
		OFFSET 0.000000 3.402643 0.000000 
		CHANNELS 3 Xrotation Zrotation Yrotation
		JOINT chest
		{
			OFFSET 0.000000 8.438565 -0.680529 
			CHANNELS 3 Xrotation Zrotation Yrotation
			JOINT neck
			{
				OFFSET 0.000000 10.207942 -0.272212 
				CHANNELS 3 Xrotation Zrotation Yrotation
				JOINT head
				{
					OFFSET 0.000000 3.130431 0.000000 
					CHANNELS 3 Xrotation Zrotation Yrotation
					End Site
					{
						OFFSET 0.000000 3.130435 0.000000 
					}
				}
			}
			JOINT lCollar
			{
				OFFSET 3.470700 6.669187 -0.816635 
				CHANNELS 3 Yrotation Zrotation Xrotation
				JOINT lShldr
				{
					OFFSET 3.198488 0.000000 0.000000 
					CHANNELS 3 Zrotation Yrotation Xrotation
					JOINT lForeArm
					{
						OFFSET 10.139888 0.000000 0.000000 
						CHANNELS 3 Yrotation Zrotation Xrotation
						JOINT lHand
						{
							OFFSET 8.370511 0.000000 0.000000 
							CHANNELS 3 Zrotation Yrotation Xrotation
							End Site
							{
								OFFSET 4.083176 0.000000 0.000000 
							}
						}
					}
				}
			}
			JOINT rCollar
			{
				OFFSET -3.470700 6.669187 -0.816635 
				CHANNELS 3 Yrotation Zrotation Xrotation
				JOINT rShldr
				{
					OFFSET -3.198488 0.000000 0.000000 
					CHANNELS 3 Zrotation Yrotation Xrotation
					JOINT rForeArm
					{
						OFFSET -10.139888 0.000000 0.000000 
						CHANNELS 3 Yrotation Zrotation Xrotation
						JOINT rHand
						{
							OFFSET -8.370511 0.000000 0.000000 
							CHANNELS 3 Zrotation Yrotation Xrotation
							End Site
							{
								OFFSET -4.083176 0.000000 0.000000 
							}
						}
					}
				}
			}
		}
	}
	JOINT lThigh
	{
		OFFSET 5.308129 -1.633274 1.361059 
		CHANNELS 3 Xrotation Zrotation Yrotation
		JOINT lShin
		{
			OFFSET -2.041588 -20.007561 0.000000 
			CHANNELS 3 Xrotation Zrotation Yrotation
			JOINT lFoot
			{
				OFFSET 0.000000 -19.190928 -1.224953 
				CHANNELS 3 Xrotation Yrotation Zrotation
				End Site
				{
					OFFSET 0.000000 -2.449906 4.627600 
				}
			}
		}
	}
	JOINT rThigh
	{
		OFFSET -5.308129 -1.633274 1.361059 
		CHANNELS 3 Xrotation Zrotation Yrotation
		JOINT rShin
		{
			OFFSET 2.041588 -20.007561 0.000000 
			CHANNELS 3 Xrotation Zrotation Yrotation
			JOINT rFoot
			{
				OFFSET 0.000000 -19.190928 -1.224953 
				CHANNELS 3 Xrotation Yrotation Zrotation
				End Site
				{
					OFFSET 0.000000 -2.449906 4.627600 
				}
			}
		}
	}
}
MOTION
Frames: 20
Frame Time: 0.033333
0.497418 49.600670 0.497418 -0.009766 0.000000 0.000000 12.167968 -0.009533 -0.002364 -9.003907 -0.009645 -0.008237 -8.544922 -0.001505 -0.009645 23.457035 0.000057 -0.009755 2.000000 -2.000000 0.000000 -52.773880 2.547547 16.519278 -56.556904 -0.554465 8.640542 -1.850040 18.558958 -18.072287 -2.000000 2.000000 0.000000 65.323273 29.958193 14.610855 58.410324 0.541916 8.657123 -7.340278 -20.021700 -18.652843 -9.424754 0.809438 0.600728 34.326168 -1.017441 -2.721774 -24.944000 1.263777 1.261562 -29.186501 -2.187200 -1.163443 71.041115 -1.180991 4.058515 16.979403 -1.273867 1.245031 
0.497418 48.318394 0.497418 -0.009766 0.000000 0.000000 10.341797 -0.009602 -0.002062 -9.003907 -0.009645 -0.008237 -8.544922 -0.001505 -0.009645 26.259769 0.000056 -0.009752 2.000000 -2.000000 0.000000 -58.833611 -14.284532 18.774323 -77.016747 -0.505656 8.843277 -1.850040 18.558958 -18.072287 -2.000000 2.000000 0.000000 61.712528 34.030880 12.767709 86.598328 0.513939 8.952450 -7.340278 -20.021700 -18.652843 -13.444318 0.751498 0.834633 42.253754 -0.637186 -3.119651 -28.850197 1.371576 1.407172 -35.058163 -2.275146 -1.351623 81.680862 -1.933015 4.181438 12.225084 -1.458042 1.274737 
0.497418 46.885971 0.497418 -0.009766 0.000000 0.000000 7.119141 -0.009670 -0.001713 -9.003907 -0.009645 -0.008237 -8.544922 -0.001505 -0.009645 29.472658 0.000055 -0.009749 2.000000 -2.000000 0.000000 -68.313591 -32.921597 24.064495 -100.478508 -0.553320 9.087165 -1.850040 18.558958 -18.072287 -2.000000 2.000000 0.000000 60.946606 33.145470 13.342428 89.712593 0.516110 8.981293 -7.340278 -20.021700 -18.652843 -16.829723 0.712283 1.069018 49.032814 -0.257128 -3.441710 -32.256287 1.497436 1.570084 -41.825890 -2.411852 -1.526485 93.864906 -2.802655 4.152013 6.770237 -1.662843 1.308126 
0.497418 46.084629 0.497418 -0.009766 0.000000 0.000000 5.097655 -0.009706 -0.001489 -9.003907 -0.009645 -0.008237 -8.544922 -0.001505 -0.009645 31.503910 0.000055 -0.009747 2.000000 -2.000000 0.000000 -77.024475 -44.000576 30.050121 -115.309837 -0.631552 9.220570 -1.850040 18.558958 -18.072287 -2.000000 2.000000 0.000000 60.043804 32.962959 13.480036 90.820717 0.516097 8.990043 -7.340278 -20.021700 -18.652843 -18.860420 0.673144 1.187575 53.205906 -0.013982 -3.614775 -34.403313 1.567628 1.696705 -46.051586 -2.499946 -1.658294 101.561058 -3.329982 4.041415 3.322893 -1.790974 1.311598 
0.497418 49.024601 0.497418 -0.009766 0.000000 0.000000 5.097655 -0.009706 -0.001489 -3.935547 -0.009743 -0.009095 -8.544922 -0.001505 -0.009645 26.425785 0.000056 -0.009752 2.000000 -2.000000 0.000000 -73.079201 -50.976471 32.269707 -113.991188 -0.621998 9.204731 -6.184979 17.437273 -29.893082 -2.000000 2.000000 0.000000 56.617432 38.602127 9.148547 90.629761 0.518585 8.990039 -7.340278 -20.021700 -18.652843 -17.142822 2.957419 4.611788 47.725742 -0.335569 -3.393276 -18.882071 -2.389817 0.949530 -34.917511 -4.687501 -2.126431 89.947083 -2.480187 4.186702 3.790550 0.444126 0.327150 
0.497418 52.089836 0.497418 -0.009766 0.000000 0.000000 5.097655 -0.009706 -0.001489 1.894531 0.000000 -0.019531 -8.544922 -0.001505 -0.009645 20.595707 0.000057 -0.009758 2.000000 -2.000000 0.000000 -65.331070 -57.032963 31.715519 -110.445427 -0.602864 9.179826 -10.677827 15.174585 -43.099346 -2.000000 2.000000 0.000000 51.949726 44.398914 3.377356 89.758842 0.518979 8.979039 -7.340278 -20.021700 -18.652843 -15.106024 5.175381 7.990404 41.951645 -0.663269 -3.094840 -3.409976 -6.385934 1.740821 -23.527067 -6.599300 -3.028040 77.852280 -1.640112 4.152364 4.633090 2.797102 -0.146725 
0.497418 55.125076 0.497418 -0.009766 0.000000 0.000000 5.097655 -0.009706 -0.001489 7.910156 0.000000 -0.019531 -8.544922 -0.001505 -0.009645 14.580079 0.000057 -0.009764 2.000000 -2.000000 0.000000 -53.510204 -62.066196 27.252317 -105.959381 -0.571002 9.138194 -14.655185 11.816219 -56.580822 -2.000000 2.000000 0.000000 45.636868 49.870110 -4.102277 88.877113 0.515185 8.971249 -7.340278 -20.021700 -18.652843 -13.319661 6.835547 10.865431 37.100151 -0.896714 -2.854597 9.632758 -9.440919 3.556367 -13.963152 -8.016631 -4.036231 67.680000 -0.937308 3.995212 5.329060 4.823915 -0.238643 
0.497418 55.996555 0.497418 -0.009766 0.000000 0.000000 5.097655 -0.009706 -0.001489 11.474609 0.000000 -0.019532 -8.544922 -0.001505 -0.009645 11.025393 0.000057 -0.009767 2.000000 -2.000000 0.000000 -41.726627 -64.613129 22.731697 -101.933746 -0.552324 9.096571 -17.622686 7.768713 -69.346420 -2.000000 2.000000 0.000000 39.839863 53.132446 -10.417665 88.663345 0.520710 8.967381 -7.340278 -20.021700 -18.652843 -12.027361 7.915830 12.889198 33.750336 -1.052251 -2.673540 18.707130 -11.259866 5.370213 -7.314155 -8.876300 -4.875323 60.693134 -0.478551 3.815796 5.823757 6.210871 -0.057223 
0.497418 51.689167 0.497418 -0.234411 1.151856 -2.807448 5.097655 -0.009706 -0.001489 11.474609 0.000000 -0.019532 -8.544922 -0.001505 -0.009645 11.025393 0.000057 -0.009767 2.000000 -2.000000 0.000000 -41.726627 -64.613129 22.731697 -101.933746 -0.552324 9.096571 -17.622686 7.768713 -69.346420 -2.000000 2.000000 0.000000 37.104248 50.372261 -13.936408 88.663345 0.520710 8.967381 -7.340278 -20.021700 -18.652843 -12.026447 7.885557 12.870587 33.750336 -1.052251 -2.673539 18.721588 -11.257228 5.382772 -7.299723 -8.850220 -4.874621 60.693134 -0.478549 3.815796 5.821653 6.216280 -0.065823 
0.497418 51.726734 0.497418 -0.234411 1.151856 -2.807448 1.761444 -4.444858 -1.671769 11.650666 -2.362390 -0.028380 -8.544922 -0.001505 -0.009645 9.594824 5.555754 0.728061 2.000000 -2.000000 0.000000 -34.173504 -62.892456 19.263279 -101.470245 -0.552387 9.097799 -17.622686 7.768713 -69.346420 -2.000000 2.000000 0.000000 46.146202 37.774807 -6.821828 83.808113 0.508536 8.922160 -3.661968 4.146454 -22.834522 -25.345341 17.514908 2.632719 47.531189 -0.364676 -3.376726 7.593651 -5.829567 9.982192 4.030596 -14.397614 -5.182572 58.987732 -0.363637 3.764340 16.629280 1.916608 -3.149593 
0.497418 51.764301 0.497418 -0.596209 2.469602 -5.709273 -1.495291 -8.959868 -3.392171 11.828499 -4.760327 -0.039329 -8.544922 -0.001505 -0.009645 7.719347 11.014593 1.124420 2.000000 -2.000000 0.000000 -26.219086 -61.210476 15.323395 -100.934708 -0.550156 9.098186 -17.622686 7.768713 -69.346420 -2.000000 2.000000 0.000000 53.328838 25.709324 -1.119032 78.336975 0.507112 8.866276 -1.439260 26.867729 -25.973217 -41.321793 24.382389 -10.546105 61.568863 0.520752 -3.888475 -3.379386 -1.728232 15.569997 15.911443 -19.847624 -6.684421 57.184616 -0.257364 3.700949 27.349300 -2.943386 -5.575284 
0.497418 51.839436 0.497418 -0.988355 3.767514 -8.648826 -3.443686 -10.721132 -4.074528 11.499030 -5.503035 -0.014636 -8.544922 -0.001505 -0.009645 4.683570 11.839250 0.352021 2.000000 -2.000000 0.000000 -23.539114 -59.732319 13.252626 -100.881546 -0.552294 9.091810 -17.622686 7.768713 -69.346420 -2.000000 2.000000 0.000000 57.103161 17.483273 0.769613 69.001236 0.513673 8.765747 -0.162290 37.537449 -29.646843 -52.133617 26.688496 -19.576933 64.764854 0.735194 -3.978689 -8.238404 -2.282448 21.986460 23.356894 -23.778055 -8.256219 60.430515 -0.462723 3.793494 30.942141 -6.753378 -6.847787 
0.467367 51.839436 0.467367 -1.480107 5.025692 -11.564805 -4.078019 -8.745426 -3.310804 10.395432 -3.899828 0.085577 -8.544922 -0.001505 -0.009645 1.036697 6.419761 -0.852025 2.000000 -2.000000 0.000000 -29.184767 -57.769188 15.660257 -101.806870 -0.554417 9.099357 -17.622686 7.768713 -69.346420 -2.000000 2.000000 0.000000 56.496044 11.958268 0.607240 56.065170 0.547620 8.635560 0.506102 41.936646 -34.870121 -38.945843 22.818262 -6.847508 21.631977 -1.513981 -1.957834 13.547346 -20.081762 29.127783 15.204555 -23.496475 -6.624331 86.144630 -2.239123 4.193615 4.371885 -6.160123 -6.659038 
0.467367 51.844437 0.467367 -1.983911 6.185324 -14.442278 -4.084199 -4.809662 -1.815035 8.829597 -1.042136 0.150467 -8.544922 -0.001505 -0.009645 -2.273178 -2.129489 -1.087983 2.000000 -2.000000 0.000000 -39.065926 -54.106441 21.457649 -103.752899 -0.566620 9.117681 -17.622686 7.768713 -69.346420 -2.000000 2.000000 0.000000 53.330193 7.345144 -1.928809 42.386524 0.617719 8.514842 1.565193 40.324440 -39.533730 -21.256702 15.954450 4.828789 5.135422 -1.856110 -0.801380 30.792217 -26.885199 33.411018 -5.058464 -21.081066 -3.002959 95.503929 -2.910004 4.121504 -3.981859 -2.105204 -5.887127 
0.467367 51.774303 0.467367 -2.470228 7.197569 -17.193409 -3.369123 -0.131155 -0.058509 7.212466 2.218627 0.134382 -8.544922 -0.001505 -0.009645 -5.613085 -11.325165 0.078551 2.000000 -2.000000 0.000000 -49.269341 -49.684357 27.520283 -106.132309 -0.574651 9.142084 -17.622686 7.768713 -69.346420 -2.000000 2.000000 0.000000 48.488373 2.674289 -8.729865 30.793112 0.698292 8.424700 4.106646 30.547758 -41.082775 -5.828075 10.356045 9.687241 23.023272 -1.469380 -2.032628 30.545914 -15.124540 31.001829 -30.365324 -17.467611 0.284799 87.218063 -2.304205 4.169425 9.593834 2.673193 -3.801166 
0.467367 51.699169 0.467367 -2.967693 7.984220 -19.786530 -1.933800 4.060508 1.525674 5.941033 5.041198 0.045955 -8.544922 -0.001505 -0.009645 -9.240776 -18.721134 2.309858 2.000000 -2.000000 0.000000 -57.631649 -46.028965 32.340858 -108.450478 -0.586053 9.160037 -17.622686 7.768713 -69.346420 -2.000000 2.000000 0.000000 44.479549 -3.661257 -27.250223 22.338686 0.758251 8.364211 8.498065 0.009282 -39.345448 7.801549 4.980872 12.148633 48.536469 -0.308371 -3.401258 23.366461 -3.593363 18.892649 -54.097095 -12.899694 1.536017 72.113991 -1.240098 4.060737 29.766378 6.436401 -0.399146 
0.427299 51.689167 0.427299 -3.274565 8.147264 -22.407690 1.077324 5.968617 2.237950 5.843443 6.071930 -0.023639 -8.544922 -0.001505 -0.009645 -14.399575 -20.972277 4.303294 2.000000 -2.000000 0.000000 -61.549179 -46.407860 34.334473 -110.166489 -0.593882 9.175681 -17.622686 7.768713 -69.346420 -2.000000 2.000000 0.000000 46.356590 -6.028657 -52.531162 17.742197 0.803587 8.340652 10.624732 -42.854931 -35.442677 13.154007 1.222386 14.254947 69.590469 1.008662 -4.066940 8.019556 -1.613407 9.090149 -64.835533 -9.949909 0.649128 42.996117 0.569355 3.131038 60.063133 8.586020 1.516689 
0.442323 51.689167 0.442325 -2.335963 5.909515 -21.685892 7.427544 3.631518 1.363228 8.355781 3.526622 -0.019231 -8.544922 -0.001505 -0.009645 -24.177452 -14.714259 3.570508 2.000000 -2.000000 0.000000 -58.195282 -55.586452 32.725922 -110.372795 -0.596990 9.180434 -17.622686 7.768713 -69.346420 -2.000000 2.000000 0.000000 52.876308 3.796968 -64.708908 20.019915 0.783666 8.348277 -1.957485 -65.047310 -17.583504 2.777340 3.226506 15.741513 86.281822 2.198257 -4.225547 -1.033406 -1.852922 8.848390 -30.246721 -9.441154 -3.057709 23.731026 1.415507 2.040169 53.319778 8.501021 0.726919 
0.417281 51.689167 0.417281 -0.156250 0.731922 -2.921919 8.808818 0.438761 0.162932 11.172129 0.383209 -0.012141 -8.544922 -0.001505 -0.009645 -28.126509 -7.386146 0.436426 2.000000 -2.000000 0.000000 -60.470657 -62.676888 36.564468 -106.091446 -0.573777 9.142967 -17.622686 7.768713 -69.346420 -2.000000 2.000000 0.000000 57.917881 14.172535 -58.481937 29.039452 0.709007 8.409852 -30.403160 -63.257355 18.633287 -10.271734 7.292917 13.585855 96.137878 2.918717 -4.147905 16.154648 1.001867 10.331127 -28.011848 -10.037177 -2.967613 56.474426 -0.187350 3.656490 28.510025 7.379190 -0.042515 
0.427299 51.689167 0.427299 -0.078043 -1.063087 8.038379 10.253737 -2.863122 -1.071999 11.057293 -1.236348 -0.026903 -8.544922 -0.001505 -0.009645 -30.633104 -1.067585 -2.333682 2.000000 -2.000000 0.000000 -48.856873 -65.881165 27.338959 -106.000206 -0.572039 9.137291 -17.622686 7.768713 -69.346420 -2.000000 2.000000 0.000000 60.679653 24.314394 -45.862885 40.693645 0.622980 8.493933 -36.377090 -51.138451 30.602259 -21.800442 13.394876 -1.739572 55.623936 0.132387 -3.693754 -3.732803 -8.793125 12.373615 -9.333340 -9.059674 -3.481467 77.900711 -1.640050 4.163835 25.822855 -3.098917 1.004293 
